<svg version="1.1" id="Layer_1" xmlns="http://www.w3.org/2000/svg" x="0px" y="0px" viewBox="0 0 496.652 496.652">
    <g transform="scale(1)">
        <path style="fill:#707070;" d="M247.587,218.94c-1.934,0-3.5,1.567-3.5,3.5v52.135c0,1.933,1.566,3.5,3.5,3.5 c1.933,0,3.5-1.567,3.5-3.5V222.44C251.087,220.508,249.519,218.94,247.587,218.94z"/>
        <path style="fill:#F7F9F9;" d="M281.435,265.432c-81.385-1.396-173.206-10.509-173.206-4.391c0-4.889,75.463,5.065,144.025,4.974 v230.587c50.234-0.78,96.844-16.481,135.59-42.883V261.042C387.845,257.196,332.577,266.308,281.435,265.432z"/>
        <path style="fill:#FFFFFF;" d="M108.229,261.042v192.275c39.867,27.332,88.111,43.335,140.1,43.335c1.313,0,3.618-0.029,4.926-0.05 V266.015C184.692,266.107,108.229,256.153,108.229,261.042z"/>
        <path style="fill:#F2F2F2;" d="M387.845,261.042c0-3.923-70.645,6.253-122.904,0.648c-96.666-10.366-156.711-6.689-156.711-0.648 c0,0-8.683,31.128-0.318,32.986c10.505,2.335,6.225-9.726,12.84-6.225c9.449,5.003,25.526,14.127,50.386,13.126 c15.171-0.61,4.667,18.064,14.005,19.232c9.337,1.167,4.668-18.676,12.836-19.639c80.403-9.481,154.373-16.278,169.441,17.628 c11.875,26.719,25.484-5.447,28.014-18.676C397.962,286.248,387.845,261.042,387.845,261.042z"/>
        <path style="fill:#E17A2D;" d="M287.919,114.278c-0.419,14.796-4.984,27.122-17.305,39.446c0,0,15.799-41.521-0.924-69.394 c-17.791-29.652-43.563-40.449-43.563-40.449s1.867,38.087-7.823,63.289c-11.428,29.716-34.685,49.287-34.685,80.145 c0,31.695,28.838,57.365,64.417,57.383c35.593-0.018,64.417-25.688,64.417-57.383C312.454,161.692,301.761,136.373,287.919,114.278z"/>
        <path style="fill:#F4E028;" d="M235.247,122.77c0,0,1.023,23.101-4.295,38.386c-6.275,18.023-19.049,29.892-19.049,48.603 c0,19.228,15.837,34.797,35.373,34.808c19.551-0.011,33.926-15.637,35.379-34.808C286.288,161.614,235.247,122.77,235.247,122.77z"/>
        <path style="fill:#FFFFFF;" d="M239.688,166.739c0,0,0.65,14.639-2.722,24.321c-3.973,11.418-12.069,18.938-12.069,30.8 c0,12.18,10.036,22.041,22.412,22.053c12.387-0.012,21.494-9.909,22.414-22.053C272.028,191.356,239.688,166.739,239.688,166.739z"/>
    </g>
</svg>
