<svg version="1.1" xmlns="http://www.w3.org/2000/svg" viewBox="175 40 145 210">
    <!-- <rect x="175" y="40" width="145" height="210" fill="#226622" fill-opacity="0.4"/> -->
    <path id="outer" style="fill:#E17A2D;" d="M287.919,114.278c-0.419,14.796-4.984,27.122-17.305,39.446c0,0,15.799-41.521-0.924-69.394 c-17.791-29.652-43.563-40.449-43.563-40.449s1.867,38.087-7.823,63.289c-11.428,29.716-34.685,49.287-34.685,80.145 c0,31.695,28.838,57.365,64.417,57.383c35.593-0.018,64.417-25.688,64.417-57.383C312.454,161.692,301.761,136.373,287.919,114.278z"/>
    <path id="middle" style="fill:#F4E028;" d="M235.247,122.77c0,0,1.023,23.101-4.295,38.386c-6.275,18.023-19.049,29.892-19.049,48.603 c0,19.228,15.837,34.797,35.373,34.808c19.551-0.011,33.926-15.637,35.379-34.808C286.288,161.614,235.247,122.77,235.247,122.77z"/>
    <path id="inner" style="fill:#FFFFFF;" d="M239.688,166.739c0,0,0.65,14.639-2.722,24.321c-3.973,11.418-12.069,18.938-12.069,30.8 c0,12.18,10.036,22.041,22.412,22.053c12.387-0.012,21.494-9.909,22.414-22.053C272.028,191.356,239.688,166.739,239.688,166.739z"/>
</svg>
